<?xml version="1.0" encoding="UTF-8" standalone="no"?>
<!DOCTYPE svg PUBLIC "-//W3C//DTD SVG 1.1//EN" "http://www.w3.org/Graphics/SVG/1.1/DTD/svg11.dtd">
<svg width="100%" height="100%" viewBox="0 0 100 100" version="1.1" xmlns="http://www.w3.org/2000/svg" xmlns:xlink="http://www.w3.org/1999/xlink" xml:space="preserve" xmlns:serif="http://www.serif.com/" style="fill-rule:evenodd;clip-rule:evenodd;stroke-linejoin:round;stroke-miterlimit:2;">
    <g transform="matrix(2.33841,0,0,2.33841,-16.9207,-17.3136)">
        <path d="M50,23.635C50,14.677 42.727,7.404 33.769,7.404L23.467,7.404C14.509,7.404 7.236,14.677 7.236,23.635L7.236,33.937C7.236,42.895 14.509,50.168 23.467,50.168L33.769,50.168C42.727,50.168 50,42.895 50,33.937L50,23.635Z"/>
        <path d="M50,23.635L50,33.937C50,42.895 42.727,50.168 33.769,50.168L23.467,50.168C14.509,50.168 7.236,42.895 7.236,33.937L7.236,23.635C7.236,14.677 14.509,7.404 23.467,7.404L33.769,7.404C42.727,7.404 50,14.677 50,23.635ZM48.717,23.635C48.717,15.385 42.019,8.687 33.769,8.687L23.467,8.687C15.217,8.687 8.519,15.385 8.519,23.635L8.519,33.937C8.519,42.187 15.217,48.885 23.467,48.885L33.769,48.885C42.019,48.885 48.717,42.187 48.717,33.937L48.717,23.635Z"/>
    </g>
    <g transform="matrix(0.0256544,0,0,0.0256544,4.77898,13.3411)">
        <path d="M3525.5,840.4L2886.5,518L2886.4,518C2839.7,524.1 2786.6,532.4 2743.4,539.9L3178.1,732.5C3165.8,738 3160.9,739.7 3150.4,744.3L2687.5,550.2C2599.1,566.8 2510.1,587.2 2434.9,607.6L2850.6,745C2831.3,754.1 2826.1,756.6 2806.2,766.1L2356.8,628.5C2223.2,666.6 2086.3,712.4 1904.7,788.3L1904.8,788.3L2750.7,939.4C2726.9,952.2 2712.5,960.6 2688.6,973.9L1788.3,839.1C1573.7,932.5 1324.9,1075.9 1126.7,1208.2L1126.8,1208.2L2012.8,1208.4L2012.9,1208.4C1972.4,1234.6 1938.1,1256.5 1889.8,1291.1L1890.6,1290.3L963.6,1322.1L963.8,1322.2C793.5,1445.1 619.8,1592.3 518.9,1683.2C421,1771.5 132.1,2070.8 -0.1,2339.9L1081,2052.4L1081.1,2052.5C1032.5,2125.8 993,2202.1 969.6,2270.1L2143.7,1890C2131.4,1610.1 2397.3,1360.1 2578,1208.4L2727,1208.4C2495.9,1408.4 2389.1,1632.8 2419.2,1801.7L2786.7,1682.7C2696.4,1450.7 2938.3,1038 3525.5,840.4M3281.7,799.5L3353.5,829.7C3233.2,878.9 3125.4,932.5 3029.7,988.8L2931,972.3C3019.1,919.3 3148.7,855.1 3281.7,799.5" style="fill:white;fill-rule:nonzero;"/>
    </g>
</svg>
