<?xml version="1.0" encoding="UTF-8" standalone="no"?><!DOCTYPE svg PUBLIC "-//W3C//DTD SVG 1.1//EN" "http://www.w3.org/Graphics/SVG/1.1/DTD/svg11.dtd"><svg width="100%" height="100%" viewBox="0 0 313 313" version="1.1" xmlns="http://www.w3.org/2000/svg" xmlns:xlink="http://www.w3.org/1999/xlink" xml:space="preserve" xmlns:serif="http://www.serif.com/" style="fill-rule:evenodd;clip-rule:evenodd;"><g><circle cx="156.25" cy="156.25" r="156.25" style="fill:#153d8f;"/><path d="M234.627,135.143l-21.55,-50.444c-1.844,-4.355 -6.125,-7.159 -10.849,-7.159l-91.956,-0c-4.724,-0 -8.968,2.804 -10.849,7.159l-21.55,50.444c-9.484,4.354 -16.09,13.948 -16.09,25.055l0,31.476c0,6.496 5.314,11.809 11.809,11.809l3.948,-0l0,19.669c0,6.494 5.313,11.808 11.809,11.808l15.756,0c6.495,0 11.808,-5.314 11.808,-11.808l0,-19.669l78.711,-0l-0,19.669c-0,6.494 5.313,11.808 11.808,11.808l15.756,0c6.495,0 11.808,-5.314 11.808,-11.808l0,-19.669l3.912,-0c6.495,-0 11.809,-5.313 11.809,-11.809l-0,-31.476c-0,-11.107 -6.606,-20.701 -16.09,-25.055Zm-127.972,-47.345c0.628,-1.439 2.03,-2.398 3.617,-2.398l91.956,-0c1.587,-0 2.989,0.922 3.617,2.361l19.189,44.909c-0.628,-0.037 -1.255,-0.074 -1.846,-0.074l-133.839,0c-0.628,0 -1.255,0.037 -1.846,0.074l19.152,-44.872Zm2.362,135.354c-0,2.176 -1.771,3.947 -3.949,3.947l-15.719,0c-2.178,0 -3.949,-1.771 -3.949,-3.947l0,-19.669l23.617,-0l-0,19.669Zm114.134,3.947l-15.756,0c-2.178,0 -3.949,-1.771 -3.949,-3.947l0,-19.669l23.617,-0l0,19.669l0.037,-0c-0,2.176 -1.771,3.947 -3.949,3.947Zm15.757,-31.476l-165.316,0c-2.177,0 -3.949,-1.771 -3.949,-3.949l0,-31.476c0,-10.849 8.819,-19.668 19.669,-19.668l133.839,0c10.849,0 19.669,8.819 19.669,19.668l0,31.476l0.037,0c-0,2.178 -1.772,3.949 -3.949,3.949Z" style="fill:#fff;fill-rule:nonzero;stroke:#fff;stroke-width:7.42px;"/></g></svg>