<?xml version="1.0" encoding="UTF-8" standalone="no"?><!DOCTYPE svg PUBLIC "-//W3C//DTD SVG 1.1//EN" "http://www.w3.org/Graphics/SVG/1.1/DTD/svg11.dtd"><svg width="100%" height="100%" viewBox="0 0 2000 1194" version="1.1" xmlns="http://www.w3.org/2000/svg" xmlns:xlink="http://www.w3.org/1999/xlink" xml:space="preserve" xmlns:serif="http://www.serif.com/" style="fill-rule:evenodd;clip-rule:evenodd;stroke-linejoin:round;stroke-miterlimit:2;"><path d="M1829.72,1190.78c-7.868,-0 -13.035,-0.288 -15.449,-0.894c-27.899,-1.192 -53.662,-7.478 -77.288,-18.85c-23.647,-11.361 -43.359,-26.933 -59.127,-46.677c-30.313,-38.284 -45.465,-85.855 -45.465,-142.72c0,-28.726 4.838,-55.798 14.546,-81.24c9.697,-25.429 22.886,-47.569 39.568,-66.425c16.662,-18.843 36.066,-33.801 58.192,-44.879c22.127,-11.067 45.928,-16.607 71.392,-16.607c51.515,-0 95.491,19.748 131.865,59.244c16.949,18.557 29.851,39.805 38.644,63.729c8.783,23.948 13.179,49.372 13.179,76.302c0,12.572 -4.551,23.34 -13.631,32.313c-9.091,8.979 -19.713,13.465 -31.834,13.465l-228.259,-0c3.031,9.585 7.129,19.155 12.286,28.729c5.136,9.575 11.371,18.254 18.644,26.03c7.273,7.776 15.912,14.227 25.907,19.301c10.015,5.095 21.674,7.93 35.017,8.526c0,0 16.98,1.777 35.922,-2.249c12.235,-2.599 30.016,-11.177 37.987,-14.988c7.982,-3.821 19.147,-7.898 27.037,-7.898c7.858,0 15.593,2.105 23.184,6.286c7.57,4.191 13.929,10.385 18.644,18.849c1.746,3.144 4.191,8.341 4.54,18.85c0.524,15.552 -7.272,28.721 -21.818,39.496c-21.233,13.775 -42.291,22.589 -63.205,26.472c-20.914,3.903 -37.73,5.835 -50.478,5.835Zm71.855,-263.898c-9.102,-20.337 -19.713,-35.604 -31.834,-45.778c-12.131,-10.174 -28.649,-17.154 -50.478,-17.154c-21.232,-0 -41.119,6.929 -53.353,17.906c-13.344,11.973 -18.758,19.46 -32.574,45.026l168.239,0Z" style="fill:#153d8f;fill-rule:nonzero;"/><path d="M1491.01,934.059c17.576,8.383 31.977,17.058 43.205,26.03c11.196,8.978 20,17.951 26.358,26.929c6.369,8.979 10.92,17.814 13.642,26.478c2.732,8.687 4.396,16.602 5.002,23.792l0,9.872c0,16.765 -2.886,33.076 -8.639,48.916c-5.762,15.871 -14.699,30.077 -26.82,42.64c-16.374,16.764 -35.624,29.615 -57.751,38.603c-22.126,8.978 -46.533,13.457 -73.2,13.457c-29.717,-0 -56.99,-6.729 -81.849,-20.196c-24.858,-13.456 -43.965,-31.556 -57.298,-54.299c-4.242,-9.573 -6.358,-17.349 -6.358,-23.338c-0,-7.776 1.818,-15.11 5.464,-21.993c3.626,-6.872 9.389,-12.418 17.268,-16.61c8.485,-4.181 16.066,-6.287 22.743,-6.287c7.262,0 14.566,1.911 21.818,5.845c6.204,3.36 11.176,9.605 17.278,17.495c8.556,11.062 15.911,18.263 27.745,22.444c11.813,4.191 24.931,6.276 35.244,6.276c13.939,-0 26.05,-0.473 36.785,-4.53c8.033,-3.02 19.65,-7.951 28.289,-19.856c3.555,-4.9 12.399,-17.698 8.927,-29.728c-4.284,-14.854 -24.674,-22.627 -32.861,-27.119c-8.187,-4.487 -36.476,-16.238 -49.409,-20.388c-12.933,-4.151 -31.875,-12.475 -46.205,-18.117c-14.319,-5.643 -26.101,-12.795 -37.617,-22.981c-11.515,-10.169 -20.914,-22.289 -28.186,-36.348c-7.273,-14.054 -10.91,-30.666 -10.91,-49.818c0,-16.749 3.781,-32.32 11.361,-46.684c7.571,-14.357 18.039,-26.923 31.372,-37.698c13.333,-10.775 29.245,-19.141 47.745,-25.133c18.49,-5.979 38.336,-8.972 59.569,-8.972c13.939,-0 28.484,2.243 43.657,6.73c15.131,4.492 28.782,10.632 40.914,18.396c6.667,4.196 11.957,9.741 15.922,16.607c3.924,6.89 5.896,13.916 5.896,21.099c0,4.795 -0.75,8.971 -2.27,12.56c-1.51,3.599 -4.222,9.357 -7.632,13.616c-3.411,4.259 -18.593,18.703 -35.563,18.703c-7.879,-0 -15.757,-2.233 -25.444,-7.034c-0,-0 -6.338,-3.519 -13.333,-5.931c-7.561,-2.604 -11.012,-3.342 -21.356,-4.777c-9.04,-1.254 -14.299,-2.451 -29.245,-0.305c-14.946,2.147 -31.218,13.624 -31.649,27.5c-1.233,8.387 4.438,16.308 7.468,19.901c3.03,3.594 9.142,7.366 15.347,10.588c6.204,3.222 16.055,7.634 28.186,11.222c4.849,1.207 13.652,3.593 26.38,7.181c12.727,3.593 26.06,8.686 40.01,15.262Z" style="fill:#153d8f;fill-rule:nonzero;"/><path d="M1187.57,1148.74c-0,11.987 -4.561,22.444 -13.642,31.422c-9.101,8.978 -19.702,13.467 -31.834,13.467c-9.09,0 -17.729,-3.143 -25.916,-9.43c-8.177,-6.286 -14.7,-14.206 -19.548,-23.79c-19.415,10.18 -40.021,18.11 -61.839,23.79c-21.825,5.691 -44.263,8.526 -67.294,8.526c-38.193,0 -69.567,-8.978 -94.123,-26.923c-24.554,-17.956 -41.077,-43.678 -49.562,-77.196c-2.421,-8.978 -3.641,-18.541 -3.641,-28.731c-0,-25.712 7.58,-47.866 22.734,-66.417c9.699,-13.156 21.515,-23.794 35.474,-31.868c13.934,-8.08 28.946,-14.37 45.011,-18.849c16.058,-4.486 32.878,-7.627 50.472,-9.425c17.576,-1.797 35.153,-2.696 52.741,-2.696c9.698,0 21.059,0.305 34.105,0.899c13.025,0.607 24.088,1.202 33.189,1.797c-2.424,-11.971 -5.269,-23.4 -9.995,-33.664c-3.143,-6.82 -6.646,-12.544 -15.459,-21.093c-12.83,-12.433 -32.666,-13.907 -51.46,-13.907c-19.403,0 -38.432,4.929 -56.311,12.11c-17.886,7.175 -29.355,14.325 -42.287,23.336c-4.565,3.181 -8.948,6.147 -14.089,7.634c-5.158,1.499 -10.162,2.242 -15.006,2.242c-13.345,0 -25.168,-5.074 -35.467,-15.261c-6.676,-8.366 -10.002,-18.248 -10.002,-29.618c0,-14.364 5.457,-25.722 16.369,-34.117c17.576,-15.547 37.425,-27.667 59.565,-36.348c22.121,-8.669 45.611,-14.499 70.476,-17.499c4.849,-0.595 10.741,-0.904 14.377,-0.904l10.178,0c16.369,0 36.328,1.159 53.924,5.645c17.576,4.493 31.566,8.962 44.294,17.697c13.888,9.536 30.303,22.883 40,38.144c9.697,15.262 17.123,30.232 22.29,44.88c5.136,14.673 8.321,27.692 9.543,39.05c1.202,11.37 1.818,18.259 1.818,20.652l0,146.311l0.915,60.134Zm-95.491,-124.766c-8.505,-0.588 -18.049,-1.195 -28.639,-1.796c-10.621,-0.589 -21.078,-0.899 -31.381,-0.899c-13.34,-0 -27.138,0.607 -41.376,1.798c-14.244,1.208 -27.281,3.296 -39.097,6.279c-11.828,3.01 -21.533,7.047 -29.106,12.121c-7.587,5.095 -11.365,11.527 -11.365,19.302c-0,14.957 5.908,25.577 17.737,31.864c11.816,6.287 24.686,9.42 38.645,9.42c9.685,-0 17.872,-0.442 24.554,-1.336c6.658,-0.904 17.874,-4.15 26.182,-6.728c8.308,-2.578 26.666,-11.197 34.041,-15.819c7.366,-4.622 22.579,-17.258 29.461,-27.982c6.882,-10.734 10.344,-26.224 10.344,-26.224Z" style="fill:#153d8f;fill-rule:nonzero;"/><path d="M597.313,1190.78c-7.878,-0 -13.037,-0.288 -15.458,-0.894c-27.893,-1.192 -53.657,-7.478 -77.289,-18.85c-23.646,-11.361 -43.357,-26.933 -59.119,-46.677c-30.32,-38.284 -45.469,-85.855 -45.469,-142.72c0,-28.726 4.844,-55.798 14.548,-81.24c9.698,-25.429 22.883,-47.569 39.566,-66.425c16.66,-18.843 36.063,-33.801 58.197,-44.879c22.122,-11.067 45.921,-16.607 71.386,-16.607c51.521,-0 95.491,19.748 131.863,59.244c16.956,18.557 29.85,39.805 38.644,63.729c8.788,23.948 13.185,49.372 13.185,76.302c0,12.572 -4.551,23.34 -13.637,32.313c-9.092,8.979 -19.706,13.465 -31.833,13.465l-228.256,-0c3.029,9.585 7.128,19.155 12.281,28.729c5.141,9.575 11.37,18.254 18.647,26.03c7.27,7.776 15.911,14.227 25.912,19.301c10.008,5.095 21.67,7.93 35.016,8.526c-0,0 16.981,1.777 35.919,-2.249c12.233,-2.599 30.015,-11.177 37.99,-14.988c7.977,-3.821 19.14,-7.898 27.031,-7.898c7.865,0 15.6,2.105 23.186,6.286c7.575,4.191 13.931,10.385 18.641,18.849c1.75,3.144 4.196,8.341 4.545,18.85c0.519,15.552 -7.27,28.721 -21.823,39.496c-21.229,13.775 -42.286,22.589 -63.201,26.472c-20.913,3.903 -37.734,5.835 -50.472,5.835Zm71.845,-263.898c-9.097,-20.337 -19.712,-35.604 -31.832,-45.778c-12.132,-10.174 -28.648,-17.154 -50.472,-17.154c-21.235,-0 -41.123,6.929 -53.359,17.906c-13.344,11.973 -18.757,19.46 -32.571,45.026l168.234,0Z" style="fill:#153d8f;fill-rule:nonzero;"/><path d="M1434.59,553.632c6.051,8.985 9.091,18.261 9.091,27.829c0,14.356 -6.07,26.031 -18.181,35.008c-8.506,6.593 -17.597,9.872 -27.294,9.872c-6.677,0 -13.179,-1.636 -19.548,-4.933c-6.368,-3.284 -11.977,-7.926 -16.826,-13.916l-86.389,-114c0,-0 -87.766,114.216 -91.053,118.063c-3.287,3.846 -8.68,8.503 -15.346,12.096c-6.677,3.588 -13.344,5.384 -20,5.384c-3.637,0 -8.044,-0.748 -13.19,-2.242c-5.157,-1.487 -11.782,-5.173 -15.039,-7.861c-3.266,-2.688 -6.718,-5.998 -10.354,-11.99c-3.636,-5.973 -6.893,-15.605 -6.893,-22.787c0,-4.183 0.915,-8.829 2.733,-13.917c1.818,-5.074 4.232,-9.423 7.273,-13.011l103.667,-138.235l-103.667,-139.132c-5.167,-6.598 -10.006,-15.261 -10.006,-26.037c0,-6.574 1.819,-13.155 5.465,-19.742c3.626,-6.58 7.653,-12.075 12.83,-16.12c5.178,-4.045 8.208,-5.612 13.364,-7.408c5.147,-1.797 10.18,-2.508 13.817,-2.508c15.757,0 28.187,5.991 37.277,17.957l89.122,117.587c12.111,-16.743 26.369,-35.598 42.743,-56.547c16.374,-20.944 30.775,-40.197 43.646,-57.453c4.078,-5.307 9.102,-9.466 16.754,-13.591c6.667,-3.588 12.943,-4.36 19.62,-4.36c10.303,0 19.394,3.005 27.294,8.978c12.111,8.973 18.181,20.646 18.181,35.004c0,8.979 -3.04,18.558 -9.091,28.726l-101.859,134.646l101.859,134.64Z" style="fill:#153d8f;fill-rule:nonzero;"/><path d="M1024.86,583.911c-0,11.983 -4.552,22.437 -13.638,31.415c-9.097,8.978 -19.705,13.465 -31.831,13.465c-9.092,-0 -17.731,-3.142 -25.918,-9.425c-8.181,-6.283 -14.703,-14.202 -19.551,-23.793c-19.41,10.186 -40.014,18.111 -61.838,23.793c-21.824,5.694 -44.261,8.526 -67.293,8.526c-38.192,0 -69.567,-8.978 -94.121,-26.923c-24.556,-17.956 -41.079,-43.679 -49.563,-77.2c-2.422,-8.978 -3.641,-18.54 -3.641,-28.726c-0,-25.716 7.58,-47.867 22.734,-66.419c9.698,-13.155 21.515,-23.793 35.473,-31.867c13.936,-8.081 28.946,-14.37 45.011,-18.849c16.059,-4.487 32.879,-7.629 50.474,-9.425c17.575,-1.797 35.151,-2.696 52.739,-2.696c9.698,0 21.063,0.303 34.105,0.899c13.03,0.606 24.091,1.202 33.188,1.797c-2.427,-11.971 -5.27,-23.4 -9.995,-33.665c-3.14,-6.819 -6.639,-12.544 -15.458,-21.092c-12.826,-12.433 -32.664,-13.907 -51.46,-13.907c-19.402,0 -38.431,4.929 -56.311,12.11c-17.885,7.175 -29.354,14.325 -42.286,23.336c-4.565,3.181 -8.949,6.145 -14.089,7.633c-5.159,1.5 -10.162,2.243 -15.006,2.243c-13.345,0 -25.168,-5.075 -35.466,-15.261c-6.676,-8.366 -10.003,-18.249 -10.003,-29.619c0,-14.363 5.456,-25.722 16.368,-34.117c17.577,-15.547 37.425,-27.666 59.565,-36.347c22.122,-8.669 45.612,-14.501 70.476,-17.499c4.85,-0.595 10.742,-0.904 14.377,-0.904l10.179,-0c16.368,-0 36.325,1.158 53.919,5.645c17.576,4.492 31.574,8.962 44.296,17.695c13.892,9.538 30.303,22.884 40.001,38.145c9.698,15.262 17.13,30.232 22.288,44.881c5.141,14.672 8.324,27.69 9.543,39.049c1.208,11.37 1.822,18.26 1.822,20.652l-0,146.308l0.91,60.142Zm-95.49,-124.77c-8.497,-0.588 -18.046,-1.195 -28.637,-1.796c-10.615,-0.59 -21.08,-0.899 -31.38,-0.899c-13.34,-0 -27.137,0.607 -41.376,1.796c-14.243,1.208 -27.28,3.297 -39.096,6.284c-11.828,3.005 -21.532,7.045 -29.107,12.12c-7.586,5.093 -11.364,11.525 -11.364,19.302c-0,14.957 5.908,25.577 17.736,31.861c11.817,6.283 24.686,9.419 38.645,9.419c9.687,-0 17.873,-0.441 24.556,-1.339c6.657,-0.899 17.873,-4.141 26.181,-6.723c8.309,-2.583 26.667,-11.2 34.036,-15.821c7.369,-4.621 22.581,-17.252 29.462,-27.984c6.881,-10.732 10.344,-26.22 10.344,-26.22Z" style="fill:#153d8f;fill-rule:nonzero;"/><path d="M569.269,13.471c-8.491,-8.675 -19.403,-13.019 -32.731,-13.019c-15.16,-0 -26.983,5.992 -35.468,17.952l-210.066,275.574l-209.158,-275.574c-9.091,-11.96 -20.919,-17.952 -35.467,-17.952c-13.339,-0 -24.407,4.344 -33.188,13.019c-8.794,8.675 -13.191,18.997 -13.191,30.963l-0,1102.93c-0,11.978 4.552,22.301 13.636,30.971c9.098,8.68 20.016,13.015 32.743,13.015l244.625,-0c12.726,-0 23.644,-4.335 32.736,-13.015c9.092,-8.67 13.643,-18.993 13.643,-30.971c-0,-12.563 -4.551,-23.338 -13.643,-32.316c-9.092,-8.978 -20.01,-13.457 -32.736,-13.457l-200.066,0l-0,-922.512l163.694,216.326c9.091,11.984 21.212,17.957 36.372,17.957c15.148,0 27.281,-5.973 36.371,-17.957l164.604,-216.326l0,405.729c0,11.978 4.392,22.3 13.18,30.964c8.788,8.687 19.242,13.018 31.379,13.018c12.728,-0 23.485,-4.331 32.285,-13.018c8.775,-8.664 13.184,-18.986 13.184,-30.964l0,-540.375c0,-11.966 -4.247,-22.288 -12.738,-30.963Z" style="fill:#e85900;fill-rule:nonzero;"/></svg>