<svg xmlns="http://www.w3.org/2000/svg" xmlns:xlink="http://www.w3.org/1999/xlink" version="1.1" x="0px" y="0px" viewBox="0 0 550 116" style="enable-background:new 0 0 550 116;" xml:space="preserve" width="550"  height="116" >
<style type="text/css">
	.st0{fill:none;stroke:#666766;stroke-width:0.5829;stroke-miterlimit:10;}
	.st1{fill:#666766;}
	.st2{font-family:'Kenteken';}
	.st3{font-size:10.492px;}
	.st4{fill:none;}
	.st5{font-size:5.8289px;}
	.st6{display:none;}
</style>
<g id="Layer_1">
	<circle class="st0" cx="520.8" cy="53" r="10"/>
	<text transform="matrix(1 0 0 1 513.2002 56.7925)" class="st1 st2 st3">NL</text>
	<rect x="504.4" y="65" class="st4" width="32.7" height="8"/>
	<text transform="matrix(1 0 0 1 512.3896 71.3613)" class="st1 st2 st5">3621</text>
</g>
<g id="Layer_3">
	<circle class="st0" cx="420.5" cy="26.4" r="10"/>
	<text transform="matrix(1 0 0 1 412.9004 30.1919)" class="st1 st2 st3">NL</text>
	<rect x="397.8" y="38.4" class="st4" width="45.4" height="8"/>
	<text transform="matrix(1 0 0 1 409.1348 44.7593)" class="st1 st2 st5">MEX21</text>
</g>
<g id="Layer_4">
	<g>
		<path class="st1" d="M8.1,104.4C8.2,104.4,8.2,104.4,8.1,104.4l0.1,5.6c0,0,0,0.1-0.1,0.1H7.4c0,0-0.1,0-0.1-0.1v-4.5    c0-0.1,0-0.1-0.1-0.1l-0.4,0.2c0,0,0,0-0.1,0c0,0,0,0,0-0.1v-0.8c0,0,0-0.1,0-0.1l0.8-0.3c0,0,0,0,0.1,0c0,0,0,0,0.1,0H8.1z"/>
		<path class="st1" d="M10.4,104.9C10.4,104.9,10.5,104.9,10.4,104.9c0.2-0.2,0.3-0.2,0.4-0.3c0.1-0.1,0.2-0.1,0.3-0.2    c0.1,0,0.2-0.1,0.3-0.1c0.1,0,0.3,0,0.4,0c0.3,0,0.6,0.1,0.8,0.2c0.2,0.1,0.4,0.2,0.5,0.4c0.1,0.1,0.2,0.3,0.3,0.5    c0.1,0.2,0.1,0.3,0.1,0.4c0,0.1,0,0.2,0,0.3c0,0.1,0,0.2-0.1,0.2c0,0.1-0.1,0.1-0.1,0.2c0,0.1-0.1,0.1-0.1,0.2l-1.7,2.3    c0,0,0,0.1,0,0.1c0,0,0,0,0.1,0h2c0,0,0.1,0,0.1,0.1v0.8c0,0,0,0.1-0.1,0.1h-3.3c0,0-0.1,0-0.1-0.1v-0.4c0,0,0-0.1,0-0.1    c0,0,0-0.1,0.1-0.1c0.1-0.1,0.1-0.2,0.2-0.3c0.1-0.1,0.2-0.2,0.3-0.4c0.1-0.1,0.2-0.3,0.3-0.5c0.1-0.2,0.2-0.3,0.4-0.5    c0.3-0.4,0.6-0.8,0.9-1.2c0.1-0.1,0.1-0.3,0.2-0.4c0-0.1,0.1-0.2,0.1-0.4c0-0.2-0.1-0.4-0.2-0.5c-0.2-0.1-0.4-0.1-0.6-0.1    c-0.2,0-0.4,0-0.6,0.1c-0.2,0.1-0.4,0.2-0.5,0.3c-0.1,0.1-0.2,0.1-0.2,0.1c0,0-0.1,0-0.1-0.1V104.9z"/>
		<path class="st1" d="M15.4,108.7c0,0,0.1,0,0.2,0.1c0.1,0.1,0.2,0.1,0.4,0.2c0.1,0.1,0.3,0.1,0.5,0.2c0.2,0.1,0.3,0.1,0.5,0.1    c0.1,0,0.3,0,0.4-0.1c0.1,0,0.2-0.1,0.3-0.2c0.1-0.1,0.2-0.2,0.2-0.2s0.1-0.2,0.1-0.3c0-0.2,0-0.3-0.1-0.4    c-0.1-0.1-0.1-0.2-0.2-0.3c-0.1-0.1-0.2-0.1-0.3-0.2c-0.1,0-0.2-0.1-0.4-0.1h-0.2c0,0-0.1,0-0.1-0.1v-0.7c0,0,0-0.1,0.1-0.1H17    c0.1,0,0.2,0,0.3-0.1c0.1,0,0.2-0.1,0.3-0.2c0.1-0.1,0.1-0.2,0.2-0.3c0-0.1,0.1-0.2,0.1-0.3c0-0.1,0-0.2-0.1-0.3    c0-0.1-0.1-0.2-0.2-0.2c-0.1-0.1-0.2-0.1-0.3-0.1c-0.1,0-0.2,0-0.3,0c-0.2,0-0.3,0-0.5,0c-0.2,0-0.3,0.1-0.4,0.1    c-0.1,0-0.3,0.1-0.4,0.2c0,0,0,0-0.1,0c0,0,0,0,0,0v-0.8c0,0,0-0.1,0.1-0.1c0.1,0,0.2-0.1,0.3-0.1c0.1,0,0.2-0.1,0.4-0.1    c0.2,0,0.4,0,0.6,0s0.4,0,0.7,0.1c0.2,0.1,0.4,0.2,0.5,0.3c0.2,0.1,0.3,0.3,0.4,0.4c0.1,0.2,0.1,0.4,0.1,0.6s0,0.4-0.1,0.6    c-0.1,0.2-0.2,0.3-0.3,0.4c-0.1,0.1-0.2,0.2-0.4,0.3c0,0,0,0,0,0c0,0,0,0,0,0c0.2,0.1,0.3,0.2,0.4,0.3c0.1,0.1,0.2,0.3,0.3,0.4    c0.1,0.2,0.1,0.4,0.1,0.6c0,0.2,0,0.4-0.1,0.6c-0.1,0.2-0.2,0.4-0.4,0.5c-0.2,0.1-0.4,0.3-0.6,0.4s-0.4,0.1-0.7,0.1    s-0.4,0-0.6-0.1c-0.2-0.1-0.3-0.1-0.5-0.2c-0.2-0.1-0.3-0.2-0.4-0.2c0,0,0,0,0,0c0,0,0,0,0,0L15.4,108.7    C15.4,108.7,15.4,108.7,15.4,108.7z"/>
		<path class="st1" d="M22.6,104.4C22.7,104.4,22.7,104.4,22.6,104.4l0.9,0c0,0,0.1,0,0.1,0.1v3.1c0,0,0,0.1,0.1,0.1h0.5    c0,0,0.1,0,0.1,0.1v0.8c0,0,0,0.1-0.1,0.1h-0.5c0,0-0.1,0-0.1,0.1v1.5c0,0,0,0.1-0.1,0.1h-0.8c0,0-0.1,0-0.1-0.1v-1.5    c0,0,0-0.1-0.1-0.1h-2.1c0,0-0.1,0-0.1-0.1v-0.8c0,0,0,0,0,0L22.6,104.4z M22.7,107.6C22.7,107.6,22.7,107.6,22.7,107.6l0.1-1.6    c0,0,0-0.1,0-0.1c0,0-0.1,0-0.1,0l-1.1,1.6c0,0,0,0.1,0,0.1c0,0,0,0,0.1,0H22.7z"/>
		<path class="st1" d="M26.3,108.8c0,0,0.1,0,0.1,0.1c0.1,0,0.2,0.1,0.3,0.1c0.1,0,0.3,0.1,0.5,0.1c0.2,0,0.4,0.1,0.6,0.1    c0.2,0,0.4,0,0.5-0.1c0.1-0.1,0.3-0.2,0.3-0.3c0.1-0.1,0.1-0.2,0.2-0.3c0-0.1,0.1-0.2,0.1-0.3c0-0.1,0-0.2-0.1-0.3    c0-0.1-0.1-0.2-0.2-0.3c-0.1-0.1-0.2-0.2-0.3-0.2c-0.1-0.1-0.2-0.1-0.4-0.1c-0.2,0-0.4,0-0.6,0c-0.2,0-0.3,0-0.4,0    c-0.1,0-0.2,0-0.3,0c-0.1,0-0.2,0-0.3,0c0,0-0.1,0-0.1-0.1v-2.8c0,0,0-0.1,0.1-0.1h2.7c0,0,0.1,0,0.1,0.1v0.7c0,0,0,0.1-0.1,0.1    h-1.8c0,0,0,0,0,0c0,0,0,0,0,0.1v1.2c0,0,0,0,0,0c0,0,0,0,0,0c0.1,0,0.1,0,0.2,0c0.1,0,0.1,0,0.2,0c0.1,0,0.2,0,0.3,0    c0.2,0,0.3,0,0.5,0.1c0.2,0,0.4,0.1,0.6,0.3c0.2,0.1,0.3,0.3,0.4,0.5c0.1,0.2,0.2,0.5,0.2,0.8c0,0.2,0,0.5-0.1,0.7    s-0.1,0.4-0.2,0.5c-0.1,0.1-0.2,0.3-0.4,0.4c-0.1,0.1-0.3,0.2-0.4,0.2c-0.1,0.1-0.3,0.1-0.4,0.1c-0.1,0-0.3,0-0.4,0    c-0.2,0-0.4,0-0.6-0.1c-0.2,0-0.3-0.1-0.5-0.1c-0.2-0.1-0.3-0.1-0.5-0.2c0,0-0.1,0-0.1-0.1L26.3,108.8    C26.3,108.8,26.3,108.8,26.3,108.8z"/>
		<path class="st1" d="M33.5,106.3c0.3,0,0.5,0,0.7,0.1c0.2,0.1,0.4,0.2,0.6,0.4c0.2,0.2,0.3,0.4,0.4,0.6c0.1,0.2,0.1,0.5,0.1,0.7    s0,0.5-0.1,0.7c-0.1,0.2-0.2,0.4-0.4,0.6c-0.2,0.2-0.4,0.3-0.6,0.4c-0.2,0.1-0.5,0.1-0.7,0.1c-0.3,0-0.5,0-0.7-0.1    c-0.2-0.1-0.4-0.2-0.6-0.4c-0.2-0.2-0.3-0.4-0.4-0.6c-0.1-0.2-0.1-0.5-0.1-0.7c0-0.1,0-0.3,0-0.4c0-0.2,0.1-0.3,0.1-0.6    c0.1-0.2,0.1-0.4,0.2-0.7c0.1-0.2,0.2-0.5,0.4-0.7c0.2-0.4,0.4-0.7,0.6-0.9c0.2-0.2,0.3-0.4,0.4-0.5c0,0,0.1-0.1,0.1-0.1    c0,0,0,0,0.1,0h0.8c0,0,0.1,0,0.1,0.1c0,0,0,0.1,0,0.1c0,0,0,0,0,0c-0.2,0.1-0.3,0.3-0.5,0.5c-0.1,0.2-0.3,0.4-0.4,0.5    c-0.1,0.2-0.2,0.3-0.3,0.4c-0.1,0.1-0.1,0.2-0.1,0.3c0,0,0,0.1,0,0.1c0,0,0,0,0.1,0C33.3,106.3,33.4,106.3,33.5,106.3z     M32.4,108.2c0,0.1,0,0.3,0.1,0.4c0.1,0.1,0.1,0.2,0.2,0.3c0.1,0.1,0.2,0.2,0.3,0.2c0.1,0.1,0.3,0.1,0.4,0.1c0.1,0,0.3,0,0.4-0.1    c0.1-0.1,0.2-0.1,0.3-0.2c0.1-0.1,0.2-0.2,0.2-0.3c0.1-0.1,0.1-0.3,0.1-0.4c0-0.1,0-0.3-0.1-0.4c-0.1-0.1-0.1-0.2-0.2-0.3    c-0.1-0.1-0.2-0.2-0.3-0.2c-0.1-0.1-0.3-0.1-0.4-0.1c-0.1,0-0.3,0-0.4,0.1c-0.1,0.1-0.2,0.1-0.3,0.2c-0.1,0.1-0.2,0.2-0.2,0.3    C32.5,108,32.4,108.1,32.4,108.2z"/>
		<path class="st1" d="M40.5,104.4C40.6,104.4,40.6,104.4,40.5,104.4l0.1,0.4c0,0,0,0.1-0.1,0.3c-0.1,0.1-0.1,0.3-0.2,0.6    c-0.1,0.2-0.2,0.5-0.3,0.8c-0.1,0.3-0.3,0.6-0.4,0.9c-0.3,0.7-0.6,1.5-1,2.3c0,0,0,0.1-0.1,0.1c0,0-0.1,0.1-0.1,0.1    c0,0-0.1,0.1-0.1,0.1c0,0,0,0.1-0.1,0.1c0,0,0,0-0.1,0h-0.8c0,0-0.1,0-0.1,0c0,0,0,0,0,0c0,0,0-0.1,0.1-0.1    c0.1-0.1,0.1-0.2,0.2-0.3c0,0,0-0.1,0.1-0.2c0-0.1,0.1-0.2,0.1-0.3c0.1-0.1,0.1-0.3,0.2-0.5c0.1-0.2,0.2-0.4,0.3-0.7    c0.1-0.3,0.3-0.7,0.4-1.1c0.2-0.4,0.4-0.9,0.6-1.5c0,0,0-0.1,0-0.1c0,0,0,0-0.1,0h-2.3c0,0-0.1,0-0.1-0.1v-0.8c0,0,0-0.1,0.1-0.1    H40.5z"/>
		<path class="st1" d="M44.1,110.1c-0.3,0-0.5,0-0.7-0.1c-0.2-0.1-0.4-0.2-0.6-0.4c-0.2-0.2-0.3-0.3-0.4-0.6    c-0.1-0.2-0.1-0.4-0.1-0.7c0-0.3,0.1-0.5,0.2-0.7c0.1-0.2,0.3-0.4,0.5-0.6c0.1,0,0.1-0.1,0-0.1c-0.1-0.1-0.3-0.3-0.3-0.5    c-0.1-0.2-0.1-0.4-0.1-0.6c0-0.2,0-0.4,0.1-0.6c0.1-0.2,0.2-0.3,0.4-0.5c0.1-0.1,0.3-0.3,0.5-0.3c0.2-0.1,0.4-0.1,0.6-0.1    c0.2,0,0.4,0,0.6,0.1c0.2,0.1,0.4,0.2,0.5,0.3c0.1,0.1,0.3,0.3,0.4,0.5c0.1,0.2,0.1,0.4,0.1,0.6c0,0.2,0,0.4-0.1,0.6    c-0.1,0.2-0.2,0.3-0.3,0.5c0,0,0,0.1,0,0.1c0,0,0,0.1,0,0.1c0.2,0.2,0.4,0.4,0.5,0.6c0.1,0.2,0.2,0.5,0.2,0.7c0,0.2,0,0.5-0.1,0.7    c-0.1,0.2-0.2,0.4-0.4,0.6c-0.2,0.2-0.4,0.3-0.6,0.4C44.6,110.1,44.4,110.1,44.1,110.1z M45.1,108.3c0-0.1,0-0.3-0.1-0.4    c-0.1-0.1-0.1-0.2-0.2-0.3c-0.1-0.1-0.2-0.2-0.3-0.2c-0.1,0-0.2-0.1-0.4-0.1c-0.1,0-0.3,0-0.4,0.1c-0.1,0-0.2,0.1-0.3,0.2    c-0.1,0.1-0.2,0.2-0.2,0.3c0,0.1-0.1,0.2-0.1,0.4c0,0.1,0,0.3,0.1,0.4c0,0.1,0.1,0.2,0.2,0.3c0.1,0.1,0.2,0.2,0.3,0.2    c0.1,0,0.2,0.1,0.4,0.1c0.1,0,0.3,0,0.4-0.1c0.1,0,0.2-0.1,0.3-0.2c0.1-0.1,0.2-0.2,0.2-0.3C45.1,108.6,45.1,108.5,45.1,108.3z     M44.9,105.8c0-0.1,0-0.2-0.1-0.3c0-0.1-0.1-0.2-0.2-0.2c-0.1-0.1-0.1-0.1-0.2-0.2s-0.2-0.1-0.3-0.1c-0.1,0-0.2,0-0.3,0.1    c-0.1,0-0.2,0.1-0.2,0.2c-0.1,0.1-0.1,0.2-0.2,0.2c0,0.1-0.1,0.2-0.1,0.3c0,0.1,0,0.2,0.1,0.3c0,0.1,0.1,0.2,0.2,0.2    c0.1,0.1,0.2,0.1,0.2,0.2c0.1,0,0.2,0.1,0.3,0.1c0.1,0,0.2,0,0.3-0.1c0.1,0,0.2-0.1,0.2-0.2c0.1-0.1,0.1-0.2,0.2-0.2    C44.9,106,44.9,105.9,44.9,105.8z"/>
		<path class="st1" d="M49.7,108c-0.3,0-0.5,0-0.7-0.1c-0.2-0.1-0.4-0.2-0.6-0.4c-0.2-0.2-0.3-0.4-0.4-0.6c-0.1-0.2-0.1-0.5-0.1-0.7    c0-0.3,0-0.5,0.1-0.7c0.1-0.2,0.2-0.4,0.4-0.6c0.2-0.2,0.4-0.3,0.6-0.4c0.2-0.1,0.5-0.1,0.7-0.1c0.3,0,0.5,0,0.7,0.1    c0.2,0.1,0.4,0.2,0.6,0.4c0.2,0.2,0.3,0.4,0.4,0.6c0.1,0.2,0.1,0.5,0.1,0.7c0,0.1,0,0.2,0,0.4c0,0.2-0.1,0.4-0.1,0.6    c-0.1,0.2-0.1,0.4-0.2,0.7c-0.1,0.2-0.2,0.5-0.4,0.7c-0.2,0.4-0.4,0.7-0.6,0.9c-0.2,0.2-0.3,0.4-0.4,0.5c0,0-0.1,0.1-0.1,0.1    c0,0,0,0-0.1,0h-0.8c0,0-0.1,0-0.1-0.1c0,0,0-0.1,0-0.1c0,0,0,0,0,0c0.2-0.1,0.3-0.3,0.5-0.5c0.1-0.2,0.3-0.4,0.4-0.5    c0.1-0.2,0.2-0.3,0.3-0.4c0.1-0.1,0.1-0.2,0.1-0.3c0,0,0-0.1,0-0.1c0,0,0,0-0.1,0C49.9,108,49.8,108,49.7,108z M50.7,106.1    c0-0.1,0-0.3-0.1-0.4c-0.1-0.1-0.1-0.2-0.2-0.3c-0.1-0.1-0.2-0.2-0.3-0.2c-0.1-0.1-0.3-0.1-0.4-0.1c-0.1,0-0.3,0-0.4,0.1    c-0.1,0.1-0.2,0.1-0.3,0.2c-0.1,0.1-0.2,0.2-0.2,0.3c-0.1,0.1-0.1,0.3-0.1,0.4c0,0.1,0,0.3,0.1,0.4c0.1,0.1,0.1,0.2,0.2,0.3    c0.1,0.1,0.2,0.2,0.3,0.2c0.1,0.1,0.3,0.1,0.4,0.1c0.1,0,0.3,0,0.4-0.1c0.1-0.1,0.2-0.1,0.3-0.2c0.1-0.1,0.2-0.2,0.2-0.3    C50.6,106.4,50.7,106.3,50.7,106.1z"/>
		<path class="st1" d="M57.2,107.2c0,0.5,0,0.9-0.1,1.3s-0.2,0.7-0.4,0.9c-0.2,0.2-0.4,0.4-0.6,0.5c-0.2,0.1-0.5,0.2-0.8,0.2    s-0.6-0.1-0.8-0.2c-0.2-0.1-0.5-0.3-0.6-0.5c-0.2-0.2-0.3-0.5-0.4-0.9c-0.1-0.4-0.1-0.8-0.1-1.3c0-0.5,0-0.9,0.1-1.3    c0.1-0.4,0.2-0.7,0.4-0.9c0.2-0.2,0.4-0.4,0.6-0.5c0.2-0.1,0.5-0.2,0.8-0.2s0.6,0.1,0.8,0.2c0.2,0.1,0.5,0.3,0.6,0.5    c0.2,0.2,0.3,0.5,0.4,0.9C57.2,106.3,57.2,106.7,57.2,107.2z M56.3,107.2c0-0.7-0.1-1.2-0.3-1.5c-0.2-0.3-0.5-0.5-0.8-0.5    c-0.3,0-0.6,0.2-0.8,0.5c-0.2,0.3-0.3,0.8-0.3,1.5c0,0.7,0.1,1.1,0.3,1.5c0.2,0.3,0.5,0.5,0.8,0.5c0.3,0,0.6-0.2,0.8-0.5    C56.2,108.3,56.3,107.9,56.3,107.2z"/>
	</g>
</g>
<g id="Layer_2" class="st6">
</g>
</svg>